<svg xmlns="http://www.w3.org/2000/svg" width="64" height="64" viewBox="0 0 64 64">
<rect width="64" height="64" rx="14" fill="#123053"/>
<path transform="translate(11.94 9.50) scale(0.08272)" d="M271.481 0.302734C350.147 0.302734 411.822 31.0473 446.933 62.2451L448.584 63.7314C460.728 74.9106 468.925 90.1799 468.925 106.392C468.925 120.672 464.834 132.798 452.68 147.125L452.678 147.127L294.76 335.037C283.42 348.348 271.335 353.416 256.104 353.416C225.605 353.416 203.372 332.106 203.372 302.595C203.372 290.233 206.311 278.147 215.449 268.998L215.477 268.969L339.486 123.297L339.839 122.883L339.396 122.566C321.932 110.049 294.017 103.918 271.481 103.918C183.048 103.918 113.061 179.179 113.061 271.803C113.061 364.424 182.061 439.687 271.481 439.688C319.73 439.688 355.731 419.099 380.453 393.366C397.067 379.898 408.144 367.838 429.402 367.838C460.879 367.838 484.303 390.325 484.303 421.817C484.303 432.915 478.259 447.208 468.069 458.392L468.061 458.401L468.053 458.412C429.313 505.663 358.679 543.5 271.679 543.5C117.193 543.5 0.5 423.716 0.5 272C0.500062 120.283 116.208 0.500232 271.481 0.302734Z" fill="#D4EB3C"/>
</svg>
